<?xml version="1.0" encoding="UTF-8"?>
<svg id="_Слой_1" data-name="Слой_1" xmlns="http://www.w3.org/2000/svg" viewBox="0 0 28.35 28.35">
  <defs>
    <style>
      .cls-1 {
        fill: #fff;
        fill-rule: evenodd;
      }
    </style>
  </defs>
  <path class="cls-1" d="M0,14.18c0,7.82,6.35,14.17,14.18,14.17s14.17-6.35,14.17-14.17S22,0,14.18,0,0,6.35,0,14.18ZM17.12,12.7c.76-.9,1.67-1.36,2.72-1.36s2.01.46,2.45,1.09c.44.64.57,1.23.57,2.86v5.32h-2.35v-4.79c0-1.91-.16-2.12-.61-2.42-.48-.33-1.32-.3-1.89.06-.61.39-.89,1.08-.89,2.6v4.54h-2.35V7.73h2.35v4.98ZM11.23,15.83c0-1.91-.16-2.12-.61-2.42-.49-.33-1.32-.3-1.89.06-.62.39-.89,1.08-.89,2.6v4.54h-2.35V7.73h2.35v4.98c.76-.9,1.67-1.36,2.72-1.36s2.01.46,2.45,1.09c.44.64.57,1.23.57,2.86v5.32h-2.35v-4.79Z"/>
</svg>